<svg width="160" height="160" viewBox="0 0 160 160" fill="none" xmlns="http://www.w3.org/2000/svg">
  <path d="M114.982 114.07C102.709 118.391 92.1245 94.734 92.1245 80.9123C92.1245 67.0907 104.26 41.8907 114.982 47.3358C126.7 60.0607 112.741 67.0902 113.741 80.9118C112.741 94.7335 126.981 101.907 114.982 114.07Z" fill="rgb(28, 27, 27)"/>
  <path d="M86.6625 21.5864L90.0067 23.4C109.613 34.0325 122.452 53.9198 124.072 76.1644V76.1644C124.302 79.3282 124.302 82.5046 124.072 85.6684V85.6684C122.452 107.913 109.613 127.8 90.0067 138.433L86.6625 140.246" stroke="rgb(28, 27, 27)" stroke-linecap="square" stroke-width="2.6"/>
  <path d="M120 58.5L117.104 65.5415C115.85 68.5881 114.974 71.7765 114.495 75.0357L114.479 75.1474C113.916 78.9724 113.916 82.8592 114.479 86.6842V86.6842C114.969 90.0165 115.881 93.2728 117.195 96.3744L120 103" stroke="rgb(28, 27, 27)" stroke-linecap="round" stroke-width="2.2"/>
  <path d="M102.843 51.2515L97.4075 60.7632C93.9003 66.9008 92.0555 73.8475 92.0555 80.9165V80.9165V80.9165C92.0555 87.9855 93.9003 94.9321 97.4075 101.07L102.843 110.581" stroke="rgb(28, 27, 27)" stroke-linecap="round" stroke-width="2.6"/>
  <path d="M18.1432 79.03C17.1053 79.4078 16.7554 80.4625 17.3618 81.3857C17.9682 82.3089 19.3012 82.7511 20.3392 82.3733L18.1432 79.03ZM138.99 39.1884L140.869 38.5043L138.673 35.161L136.794 35.8451L138.99 39.1884ZM20.3392 82.3733L138.99 39.1884L136.794 35.8451L18.1432 79.03L20.3392 82.3733Z" fill="rgb(28, 27, 27)"/>
  <path d="M20.339 79.0302C19.3011 78.6524 17.9681 79.0946 17.3617 80.0178C16.7553 80.9411 17.1051 81.9958 18.1431 82.3735L20.339 79.0302ZM136.806 125.563L138.686 126.247L140.882 122.904L139.002 122.22L136.806 125.563ZM18.1431 82.3735L136.806 125.563L139.002 122.22L20.339 79.0302L18.1431 82.3735Z" fill="rgb(28, 27, 27)"/>
</svg>